<svg width="325" height="16" viewBox="0 0 325 16" fill="none" xmlns="http://www.w3.org/2000/svg">
<path d="M8.95312 7.33594C8.95312 8.13281 8.72656 8.74219 8.27344 9.16406C7.82552 9.58073 7.1901 9.78906 6.36719 9.78906C5.54948 9.78906 4.89323 9.51562 4.39844 8.96875C3.90885 8.41667 3.66406 7.66667 3.66406 6.71875V5.85938C3.66406 4.94271 3.91146 4.21094 4.40625 3.66406C4.90625 3.11198 5.5599 2.83594 6.36719 2.83594C7.20052 2.83594 7.84115 3.04948 8.28906 3.47656C8.73698 3.90365 8.96094 4.50521 8.96094 5.28125H7.82031C7.82031 4.76562 7.69531 4.39844 7.44531 4.17969C7.20052 3.95573 6.84115 3.84375 6.36719 3.84375C5.8776 3.84375 5.49219 4.02344 5.21094 4.38281C4.92969 4.74219 4.78906 5.24219 4.78906 5.88281V6.76562C4.78906 7.39062 4.92969 7.88281 5.21094 8.24219C5.49219 8.60156 5.8776 8.78125 6.36719 8.78125C6.84635 8.78125 7.20573 8.67188 7.44531 8.45312C7.6901 8.23438 7.8125 7.86198 7.8125 7.33594H8.95312ZM1.82031 6.30469C1.82031 7.20052 2.02865 8.03125 2.44531 8.79688C2.86198 9.55729 3.42708 10.1536 4.14062 10.5859C4.85938 11.0182 5.63542 11.2344 6.46875 11.2344C7.30208 11.2344 8.07552 11.0182 8.78906 10.5859C9.5026 10.1536 10.0677 9.55729 10.4844 8.79688C10.901 8.03125 11.1094 7.20052 11.1094 6.30469C11.1094 5.41927 10.9036 4.59896 10.4922 3.84375C10.0807 3.08854 9.51562 2.49479 8.79688 2.0625C8.08333 1.625 7.30729 1.40625 6.46875 1.40625C5.63542 1.40625 4.85938 1.6224 4.14062 2.05469C3.42188 2.48177 2.85417 3.07552 2.4375 3.83594C2.02604 4.59635 1.82031 5.41927 1.82031 6.30469ZM0.921875 6.30469C0.921875 5.2526 1.16406 4.27604 1.64844 3.375C2.13802 2.47396 2.8125 1.76562 3.67188 1.25C4.53646 0.729167 5.46875 0.46875 6.46875 0.46875C7.46875 0.46875 8.39844 0.729167 9.25781 1.25C10.1172 1.76562 10.7891 2.47396 11.2734 3.375C11.763 4.27604 12.0078 5.2526 12.0078 6.30469C12.0078 7.33073 11.7734 8.29167 11.3047 9.1875C10.8359 10.0833 10.1693 10.8047 9.30469 11.3516C8.44531 11.8932 7.5 12.1641 6.46875 12.1641C5.44271 12.1641 4.4974 11.8958 3.63281 11.3594C2.77344 10.8177 2.10677 10.099 1.63281 9.20312C1.15885 8.30729 0.921875 7.34115 0.921875 6.30469ZM29.125 12H21.6719V10.9609L25.6094 6.58594C26.1927 5.92448 26.5938 5.38802 26.8125 4.97656C27.0365 4.5599 27.1484 4.13021 27.1484 3.6875C27.1484 3.09375 26.9688 2.60677 26.6094 2.22656C26.25 1.84635 25.7708 1.65625 25.1719 1.65625C24.4531 1.65625 23.8932 1.86198 23.4922 2.27344C23.0964 2.67969 22.8984 3.2474 22.8984 3.97656H21.4531C21.4531 2.92969 21.7891 2.08333 22.4609 1.4375C23.138 0.791667 24.0417 0.46875 25.1719 0.46875C26.2292 0.46875 27.0651 0.747396 27.6797 1.30469C28.2943 1.85677 28.6016 2.59375 28.6016 3.51562C28.6016 4.63542 27.888 5.96875 26.4609 7.51562L23.4141 10.8203H29.125V12ZM37.7891 7.14844C37.7891 8.84115 37.5 10.099 36.9219 10.9219C36.3438 11.7448 35.4401 12.1562 34.2109 12.1562C32.9974 12.1562 32.099 11.7552 31.5156 10.9531C30.9323 10.1458 30.6302 8.94271 30.6094 7.34375V5.41406C30.6094 3.74219 30.8984 2.5 31.4766 1.6875C32.0547 0.875 32.9609 0.46875 34.1953 0.46875C35.4193 0.46875 36.3203 0.861979 36.8984 1.64844C37.4766 2.42969 37.7734 3.63802 37.7891 5.27344V7.14844ZM36.3438 5.17188C36.3438 3.94792 36.1719 3.05729 35.8281 2.5C35.4844 1.9375 34.9401 1.65625 34.1953 1.65625C33.4557 1.65625 32.9167 1.9349 32.5781 2.49219C32.2396 3.04948 32.0651 3.90625 32.0547 5.0625V7.375C32.0547 8.60417 32.2318 9.51302 32.5859 10.1016C32.9453 10.6849 33.487 10.9766 34.2109 10.9766C34.9245 10.9766 35.4531 10.7005 35.7969 10.1484C36.1458 9.59635 36.3281 8.72656 36.3438 7.53906V5.17188ZM47.0938 12H39.6406V10.9609L43.5781 6.58594C44.1615 5.92448 44.5625 5.38802 44.7812 4.97656C45.0052 4.5599 45.1172 4.13021 45.1172 3.6875C45.1172 3.09375 44.9375 2.60677 44.5781 2.22656C44.2188 1.84635 43.7396 1.65625 43.1406 1.65625C42.4219 1.65625 41.862 1.86198 41.4609 2.27344C41.0651 2.67969 40.8672 3.2474 40.8672 3.97656H39.4219C39.4219 2.92969 39.7578 2.08333 40.4297 1.4375C41.1068 0.791667 42.0104 0.46875 43.1406 0.46875C44.1979 0.46875 45.0339 0.747396 45.6484 1.30469C46.263 1.85677 46.5703 2.59375 46.5703 3.51562C46.5703 4.63542 45.8568 5.96875 44.4297 7.51562L41.3828 10.8203H47.0938V12ZM55.7578 7.14844C55.7578 8.84115 55.4688 10.099 54.8906 10.9219C54.3125 11.7448 53.4089 12.1562 52.1797 12.1562C50.9661 12.1562 50.0677 11.7552 49.4844 10.9531C48.901 10.1458 48.599 8.94271 48.5781 7.34375V5.41406C48.5781 3.74219 48.8672 2.5 49.4453 1.6875C50.0234 0.875 50.9297 0.46875 52.1641 0.46875C53.388 0.46875 54.2891 0.861979 54.8672 1.64844C55.4453 2.42969 55.7422 3.63802 55.7578 5.27344V7.14844ZM54.3125 5.17188C54.3125 3.94792 54.1406 3.05729 53.7969 2.5C53.4531 1.9375 52.9089 1.65625 52.1641 1.65625C51.4245 1.65625 50.8854 1.9349 50.5469 2.49219C50.2083 3.04948 50.0339 3.90625 50.0234 5.0625V7.375C50.0234 8.60417 50.2005 9.51302 50.5547 10.1016C50.9141 10.6849 51.4557 10.9766 52.1797 10.9766C52.8932 10.9766 53.4219 10.7005 53.7656 10.1484C54.1146 9.59635 54.2969 8.72656 54.3125 7.53906V5.17188ZM63.1641 14.1094H62V0.625H63.1641V14.1094ZM76.1094 9.03125H71.3438L70.2734 12H68.7266L73.0703 0.625H74.3828L78.7344 12H77.1953L76.1094 9.03125ZM71.7969 7.79688H75.6641L73.7266 2.47656L71.7969 7.79688ZM81.6094 12H80.1641V0H81.6094V12ZM85.5 12H84.0547V0H85.5V12ZM96.1875 7.39844H93.5156V12H92.0078V0.625H95.7734C97.0547 0.625 98.0391 0.916667 98.7266 1.5C99.4193 2.08333 99.7656 2.93229 99.7656 4.04688C99.7656 4.75521 99.5729 5.3724 99.1875 5.89844C98.8073 6.42448 98.276 6.81771 97.5938 7.07812L100.266 11.9062V12H98.6562L96.1875 7.39844ZM93.5156 6.17188H95.8203C96.5651 6.17188 97.1562 5.97917 97.5938 5.59375C98.0365 5.20833 98.2578 4.69271 98.2578 4.04688C98.2578 3.34375 98.0469 2.80469 97.625 2.42969C97.2083 2.05469 96.6042 1.86458 95.8125 1.85938H93.5156V6.17188ZM103.219 12H101.773V3.54688H103.219V12ZM101.656 1.30469C101.656 1.07031 101.727 0.872396 101.867 0.710938C102.013 0.549479 102.227 0.46875 102.508 0.46875C102.789 0.46875 103.003 0.549479 103.148 0.710938C103.294 0.872396 103.367 1.07031 103.367 1.30469C103.367 1.53906 103.294 1.73438 103.148 1.89062C103.003 2.04688 102.789 2.125 102.508 2.125C102.227 2.125 102.013 2.04688 101.867 1.89062C101.727 1.73438 101.656 1.53906 101.656 1.30469ZM105.195 7.70312C105.195 6.38542 105.5 5.33854 106.109 4.5625C106.719 3.78125 107.526 3.39062 108.531 3.39062C109.562 3.39062 110.367 3.75521 110.945 4.48438L111.016 3.54688H112.336V11.7969C112.336 12.8906 112.01 13.7526 111.359 14.3828C110.714 15.013 109.844 15.3281 108.75 15.3281C108.141 15.3281 107.544 15.1979 106.961 14.9375C106.378 14.6771 105.932 14.3203 105.625 13.8672L106.375 13C106.995 13.7656 107.753 14.1484 108.648 14.1484C109.352 14.1484 109.898 13.9505 110.289 13.5547C110.685 13.1589 110.883 12.6016 110.883 11.8828V11.1562C110.305 11.8229 109.516 12.1562 108.516 12.1562C107.526 12.1562 106.724 11.7578 106.109 10.9609C105.5 10.1641 105.195 9.07812 105.195 7.70312ZM106.648 7.86719C106.648 8.82031 106.844 9.57031 107.234 10.1172C107.625 10.6589 108.172 10.9297 108.875 10.9297C109.786 10.9297 110.456 10.5156 110.883 9.6875V5.82812C110.44 5.02083 109.776 4.61719 108.891 4.61719C108.188 4.61719 107.638 4.89062 107.242 5.4375C106.846 5.98438 106.648 6.79427 106.648 7.86719ZM115.969 4.57031C116.609 3.78385 117.443 3.39062 118.469 3.39062C120.255 3.39062 121.156 4.39844 121.172 6.41406V12H119.727V6.40625C119.721 5.79688 119.581 5.34635 119.305 5.05469C119.034 4.76302 118.609 4.61719 118.031 4.61719C117.562 4.61719 117.151 4.74219 116.797 4.99219C116.443 5.24219 116.167 5.57031 115.969 5.97656V12H114.523V0H115.969V4.57031ZM125.297 1.5V3.54688H126.875V4.66406H125.297V9.90625C125.297 10.2448 125.367 10.5 125.508 10.6719C125.648 10.8385 125.888 10.9219 126.227 10.9219C126.393 10.9219 126.622 10.8906 126.914 10.8281V12C126.534 12.1042 126.164 12.1562 125.805 12.1562C125.159 12.1562 124.672 11.9609 124.344 11.5703C124.016 11.1797 123.852 10.625 123.852 9.90625V4.66406H122.312V3.54688H123.852V1.5H125.297ZM133.492 9.75781C133.492 9.36719 133.344 9.0651 133.047 8.85156C132.755 8.63281 132.242 8.44531 131.508 8.28906C130.779 8.13281 130.198 7.94531 129.766 7.72656C129.339 7.50781 129.021 7.2474 128.812 6.94531C128.609 6.64323 128.508 6.28385 128.508 5.86719C128.508 5.17448 128.799 4.58854 129.383 4.10938C129.971 3.63021 130.721 3.39062 131.633 3.39062C132.591 3.39062 133.367 3.63802 133.961 4.13281C134.56 4.6276 134.859 5.26042 134.859 6.03125H133.406C133.406 5.63542 133.237 5.29427 132.898 5.00781C132.565 4.72135 132.143 4.57812 131.633 4.57812C131.107 4.57812 130.695 4.69271 130.398 4.92188C130.102 5.15104 129.953 5.45052 129.953 5.82031C129.953 6.16927 130.091 6.43229 130.367 6.60938C130.643 6.78646 131.141 6.95573 131.859 7.11719C132.583 7.27865 133.169 7.47135 133.617 7.69531C134.065 7.91927 134.396 8.1901 134.609 8.50781C134.828 8.82031 134.938 9.20312 134.938 9.65625C134.938 10.4115 134.635 11.0182 134.031 11.4766C133.427 11.9297 132.643 12.1562 131.68 12.1562C131.003 12.1562 130.404 12.0365 129.883 11.7969C129.362 11.5573 128.953 11.224 128.656 10.7969C128.365 10.3646 128.219 9.89844 128.219 9.39844H129.664C129.69 9.88281 129.883 10.2682 130.242 10.5547C130.607 10.8359 131.086 10.9766 131.68 10.9766C132.227 10.9766 132.664 10.8672 132.992 10.6484C133.326 10.4245 133.492 10.1276 133.492 9.75781ZM145.188 7.39844H142.516V12H141.008V0.625H144.773C146.055 0.625 147.039 0.916667 147.727 1.5C148.419 2.08333 148.766 2.93229 148.766 4.04688C148.766 4.75521 148.573 5.3724 148.188 5.89844C147.807 6.42448 147.276 6.81771 146.594 7.07812L149.266 11.9062V12H147.656L145.188 7.39844ZM142.516 6.17188H144.82C145.565 6.17188 146.156 5.97917 146.594 5.59375C147.036 5.20833 147.258 4.69271 147.258 4.04688C147.258 3.34375 147.047 2.80469 146.625 2.42969C146.208 2.05469 145.604 1.86458 144.812 1.85938H142.516V6.17188ZM154.156 12.1562C153.01 12.1562 152.078 11.7812 151.359 11.0312C150.641 10.276 150.281 9.26823 150.281 8.00781V7.74219C150.281 6.90365 150.44 6.15625 150.758 5.5C151.081 4.83854 151.529 4.32292 152.102 3.95312C152.68 3.57812 153.305 3.39062 153.977 3.39062C155.076 3.39062 155.93 3.7526 156.539 4.47656C157.148 5.20052 157.453 6.23698 157.453 7.58594V8.1875H151.727C151.747 9.02083 151.99 9.69531 152.453 10.2109C152.922 10.7214 153.516 10.9766 154.234 10.9766C154.745 10.9766 155.177 10.8724 155.531 10.6641C155.885 10.4557 156.195 10.1797 156.461 9.83594L157.344 10.5234C156.635 11.612 155.573 12.1562 154.156 12.1562ZM153.977 4.57812C153.393 4.57812 152.904 4.79167 152.508 5.21875C152.112 5.64062 151.867 6.23438 151.773 7H156.008V6.89062C155.966 6.15625 155.768 5.58854 155.414 5.1875C155.06 4.78125 154.581 4.57812 153.977 4.57812ZM164.055 9.75781C164.055 9.36719 163.906 9.0651 163.609 8.85156C163.318 8.63281 162.805 8.44531 162.07 8.28906C161.341 8.13281 160.76 7.94531 160.328 7.72656C159.901 7.50781 159.583 7.2474 159.375 6.94531C159.172 6.64323 159.07 6.28385 159.07 5.86719C159.07 5.17448 159.362 4.58854 159.945 4.10938C160.534 3.63021 161.284 3.39062 162.195 3.39062C163.154 3.39062 163.93 3.63802 164.523 4.13281C165.122 4.6276 165.422 5.26042 165.422 6.03125H163.969C163.969 5.63542 163.799 5.29427 163.461 5.00781C163.128 4.72135 162.706 4.57812 162.195 4.57812C161.669 4.57812 161.258 4.69271 160.961 4.92188C160.664 5.15104 160.516 5.45052 160.516 5.82031C160.516 6.16927 160.654 6.43229 160.93 6.60938C161.206 6.78646 161.703 6.95573 162.422 7.11719C163.146 7.27865 163.732 7.47135 164.18 7.69531C164.628 7.91927 164.958 8.1901 165.172 8.50781C165.391 8.82031 165.5 9.20312 165.5 9.65625C165.5 10.4115 165.198 11.0182 164.594 11.4766C163.99 11.9297 163.206 12.1562 162.242 12.1562C161.565 12.1562 160.966 12.0365 160.445 11.7969C159.924 11.5573 159.516 11.224 159.219 10.7969C158.927 10.3646 158.781 9.89844 158.781 9.39844H160.227C160.253 9.88281 160.445 10.2682 160.805 10.5547C161.169 10.8359 161.648 10.9766 162.242 10.9766C162.789 10.9766 163.227 10.8672 163.555 10.6484C163.888 10.4245 164.055 10.1276 164.055 9.75781ZM170.891 12.1562C169.745 12.1562 168.812 11.7812 168.094 11.0312C167.375 10.276 167.016 9.26823 167.016 8.00781V7.74219C167.016 6.90365 167.174 6.15625 167.492 5.5C167.815 4.83854 168.263 4.32292 168.836 3.95312C169.414 3.57812 170.039 3.39062 170.711 3.39062C171.81 3.39062 172.664 3.7526 173.273 4.47656C173.883 5.20052 174.188 6.23698 174.188 7.58594V8.1875H168.461C168.482 9.02083 168.724 9.69531 169.188 10.2109C169.656 10.7214 170.25 10.9766 170.969 10.9766C171.479 10.9766 171.911 10.8724 172.266 10.6641C172.62 10.4557 172.93 10.1797 173.195 9.83594L174.078 10.5234C173.37 11.612 172.307 12.1562 170.891 12.1562ZM170.711 4.57812C170.128 4.57812 169.638 4.79167 169.242 5.21875C168.846 5.64062 168.602 6.23438 168.508 7H172.742V6.89062C172.701 6.15625 172.503 5.58854 172.148 5.1875C171.794 4.78125 171.315 4.57812 170.711 4.57812ZM179.953 4.84375C179.734 4.80729 179.497 4.78906 179.242 4.78906C178.294 4.78906 177.651 5.19271 177.312 6V12H175.867V3.54688H177.273L177.297 4.52344C177.771 3.76823 178.443 3.39062 179.312 3.39062C179.594 3.39062 179.807 3.42708 179.953 3.5V4.84375ZM184.219 10.0391L186.312 3.54688H187.789L184.758 12H183.656L180.594 3.54688H182.07L184.219 10.0391ZM192.578 12.1562C191.432 12.1562 190.5 11.7812 189.781 11.0312C189.062 10.276 188.703 9.26823 188.703 8.00781V7.74219C188.703 6.90365 188.862 6.15625 189.18 5.5C189.503 4.83854 189.951 4.32292 190.523 3.95312C191.102 3.57812 191.727 3.39062 192.398 3.39062C193.497 3.39062 194.352 3.7526 194.961 4.47656C195.57 5.20052 195.875 6.23698 195.875 7.58594V8.1875H190.148C190.169 9.02083 190.411 9.69531 190.875 10.2109C191.344 10.7214 191.938 10.9766 192.656 10.9766C193.167 10.9766 193.599 10.8724 193.953 10.6641C194.307 10.4557 194.617 10.1797 194.883 9.83594L195.766 10.5234C195.057 11.612 193.995 12.1562 192.578 12.1562ZM192.398 4.57812C191.815 4.57812 191.326 4.79167 190.93 5.21875C190.534 5.64062 190.289 6.23438 190.195 7H194.43V6.89062C194.388 6.15625 194.19 5.58854 193.836 5.1875C193.482 4.78125 193.003 4.57812 192.398 4.57812ZM197.203 7.70312C197.203 6.40625 197.51 5.36458 198.125 4.57812C198.74 3.78646 199.544 3.39062 200.539 3.39062C201.529 3.39062 202.312 3.72917 202.891 4.40625V0H204.336V12H203.008L202.938 11.0938C202.359 11.8021 201.555 12.1562 200.523 12.1562C199.544 12.1562 198.745 11.7552 198.125 10.9531C197.51 10.151 197.203 9.10417 197.203 7.8125V7.70312ZM198.648 7.86719C198.648 8.82552 198.846 9.57552 199.242 10.1172C199.638 10.6589 200.185 10.9297 200.883 10.9297C201.799 10.9297 202.469 10.5182 202.891 9.69531V5.8125C202.458 5.01562 201.794 4.61719 200.898 4.61719C200.19 4.61719 199.638 4.89062 199.242 5.4375C198.846 5.98438 198.648 6.79427 198.648 7.86719ZM211.992 14.1094H210.828V0.625H211.992V14.1094ZM218.656 12V0.625H221.867C222.857 0.625 223.732 0.84375 224.492 1.28125C225.253 1.71875 225.839 2.34115 226.25 3.14844C226.667 3.95573 226.878 4.88281 226.883 5.92969V6.65625C226.883 7.72917 226.674 8.66927 226.258 9.47656C225.846 10.2839 225.255 10.9036 224.484 11.3359C223.719 11.7682 222.826 11.9896 221.805 12H218.656ZM220.156 1.85938V10.7734H221.734C222.891 10.7734 223.789 10.4141 224.43 9.69531C225.076 8.97656 225.398 7.95312 225.398 6.625V5.96094C225.398 4.66927 225.094 3.66667 224.484 2.95312C223.88 2.23438 223.021 1.86979 221.906 1.85938H220.156ZM232.438 12.1562C231.292 12.1562 230.359 11.7812 229.641 11.0312C228.922 10.276 228.562 9.26823 228.562 8.00781V7.74219C228.562 6.90365 228.721 6.15625 229.039 5.5C229.362 4.83854 229.81 4.32292 230.383 3.95312C230.961 3.57812 231.586 3.39062 232.258 3.39062C233.357 3.39062 234.211 3.7526 234.82 4.47656C235.43 5.20052 235.734 6.23698 235.734 7.58594V8.1875H230.008C230.029 9.02083 230.271 9.69531 230.734 10.2109C231.203 10.7214 231.797 10.9766 232.516 10.9766C233.026 10.9766 233.458 10.8724 233.812 10.6641C234.167 10.4557 234.477 10.1797 234.742 9.83594L235.625 10.5234C234.917 11.612 233.854 12.1562 232.438 12.1562ZM232.258 4.57812C231.674 4.57812 231.185 4.79167 230.789 5.21875C230.393 5.64062 230.148 6.23438 230.055 7H234.289V6.89062C234.247 6.15625 234.049 5.58854 233.695 5.1875C233.341 4.78125 232.862 4.57812 232.258 4.57812ZM240.094 10.0391L242.188 3.54688H243.664L240.633 12H239.531L236.469 3.54688H237.945L240.094 10.0391ZM248.453 12.1562C247.307 12.1562 246.375 11.7812 245.656 11.0312C244.938 10.276 244.578 9.26823 244.578 8.00781V7.74219C244.578 6.90365 244.737 6.15625 245.055 5.5C245.378 4.83854 245.826 4.32292 246.398 3.95312C246.977 3.57812 247.602 3.39062 248.273 3.39062C249.372 3.39062 250.227 3.7526 250.836 4.47656C251.445 5.20052 251.75 6.23698 251.75 7.58594V8.1875H246.023C246.044 9.02083 246.286 9.69531 246.75 10.2109C247.219 10.7214 247.812 10.9766 248.531 10.9766C249.042 10.9766 249.474 10.8724 249.828 10.6641C250.182 10.4557 250.492 10.1797 250.758 9.83594L251.641 10.5234C250.932 11.612 249.87 12.1562 248.453 12.1562ZM248.273 4.57812C247.69 4.57812 247.201 4.79167 246.805 5.21875C246.409 5.64062 246.164 6.23438 246.07 7H250.305V6.89062C250.263 6.15625 250.065 5.58854 249.711 5.1875C249.357 4.78125 248.878 4.57812 248.273 4.57812ZM255 12H253.555V0H255V12ZM256.938 7.69531C256.938 6.86719 257.099 6.1224 257.422 5.46094C257.75 4.79948 258.203 4.28906 258.781 3.92969C259.365 3.57031 260.029 3.39062 260.773 3.39062C261.924 3.39062 262.854 3.78906 263.562 4.58594C264.276 5.38281 264.633 6.44271 264.633 7.76562V7.86719C264.633 8.6901 264.474 9.42969 264.156 10.0859C263.844 10.737 263.393 11.2448 262.805 11.6094C262.221 11.974 261.549 12.1562 260.789 12.1562C259.643 12.1562 258.714 11.7578 258 10.9609C257.292 10.1641 256.938 9.10938 256.938 7.79688V7.69531ZM258.391 7.86719C258.391 8.80469 258.607 9.55729 259.039 10.125C259.477 10.6927 260.06 10.9766 260.789 10.9766C261.523 10.9766 262.107 10.6901 262.539 10.1172C262.971 9.53906 263.188 8.73177 263.188 7.69531C263.188 6.76823 262.966 6.01823 262.523 5.44531C262.086 4.86719 261.503 4.57812 260.773 4.57812C260.06 4.57812 259.484 4.86198 259.047 5.42969C258.609 5.9974 258.391 6.8099 258.391 7.86719ZM273.586 7.86719C273.586 9.15365 273.292 10.1901 272.703 10.9766C272.115 11.763 271.318 12.1562 270.312 12.1562C269.286 12.1562 268.479 11.8307 267.891 11.1797V15.25H266.445V3.54688H267.766L267.836 4.48438C268.424 3.75521 269.242 3.39062 270.289 3.39062C271.305 3.39062 272.107 3.77344 272.695 4.53906C273.289 5.30469 273.586 6.36979 273.586 7.73438V7.86719ZM272.141 7.70312C272.141 6.75 271.938 5.9974 271.531 5.44531C271.125 4.89323 270.568 4.61719 269.859 4.61719C268.984 4.61719 268.328 5.00521 267.891 5.78125V9.82031C268.323 10.5911 268.984 10.9766 269.875 10.9766C270.568 10.9766 271.117 10.7031 271.523 10.1562C271.935 9.60417 272.141 8.78646 272.141 7.70312ZM278.938 12.1562C277.792 12.1562 276.859 11.7812 276.141 11.0312C275.422 10.276 275.062 9.26823 275.062 8.00781V7.74219C275.062 6.90365 275.221 6.15625 275.539 5.5C275.862 4.83854 276.31 4.32292 276.883 3.95312C277.461 3.57812 278.086 3.39062 278.758 3.39062C279.857 3.39062 280.711 3.7526 281.32 4.47656C281.93 5.20052 282.234 6.23698 282.234 7.58594V8.1875H276.508C276.529 9.02083 276.771 9.69531 277.234 10.2109C277.703 10.7214 278.297 10.9766 279.016 10.9766C279.526 10.9766 279.958 10.8724 280.312 10.6641C280.667 10.4557 280.977 10.1797 281.242 9.83594L282.125 10.5234C281.417 11.612 280.354 12.1562 278.938 12.1562ZM278.758 4.57812C278.174 4.57812 277.685 4.79167 277.289 5.21875C276.893 5.64062 276.648 6.23438 276.555 7H280.789V6.89062C280.747 6.15625 280.549 5.58854 280.195 5.1875C279.841 4.78125 279.362 4.57812 278.758 4.57812ZM283.562 7.70312C283.562 6.40625 283.87 5.36458 284.484 4.57812C285.099 3.78646 285.904 3.39062 286.898 3.39062C287.888 3.39062 288.672 3.72917 289.25 4.40625V0H290.695V12H289.367L289.297 11.0938C288.719 11.8021 287.914 12.1562 286.883 12.1562C285.904 12.1562 285.104 11.7552 284.484 10.9531C283.87 10.151 283.562 9.10417 283.562 7.8125V7.70312ZM285.008 7.86719C285.008 8.82552 285.206 9.57552 285.602 10.1172C285.997 10.6589 286.544 10.9297 287.242 10.9297C288.159 10.9297 288.828 10.5182 289.25 9.69531V5.8125C288.818 5.01562 288.154 4.61719 287.258 4.61719C286.549 4.61719 285.997 4.89062 285.602 5.4375C285.206 5.98438 285.008 6.79427 285.008 7.86719ZM304.398 10.0078L306.023 3.54688H307.469L305.008 12H303.836L301.781 5.59375L299.781 12H298.609L296.156 3.54688H297.594L299.258 9.875L301.227 3.54688H302.391L304.398 10.0078ZM310.516 12H309.07V3.54688H310.516V12ZM308.953 1.30469C308.953 1.07031 309.023 0.872396 309.164 0.710938C309.31 0.549479 309.523 0.46875 309.805 0.46875C310.086 0.46875 310.299 0.549479 310.445 0.710938C310.591 0.872396 310.664 1.07031 310.664 1.30469C310.664 1.53906 310.591 1.73438 310.445 1.89062C310.299 2.04688 310.086 2.125 309.805 2.125C309.523 2.125 309.31 2.04688 309.164 1.89062C309.023 1.73438 308.953 1.53906 308.953 1.30469ZM314.797 1.5V3.54688H316.375V4.66406H314.797V9.90625C314.797 10.2448 314.867 10.5 315.008 10.6719C315.148 10.8385 315.388 10.9219 315.727 10.9219C315.893 10.9219 316.122 10.8906 316.414 10.8281V12C316.034 12.1042 315.664 12.1562 315.305 12.1562C314.659 12.1562 314.172 11.9609 313.844 11.5703C313.516 11.1797 313.352 10.625 313.352 9.90625V4.66406H311.812V3.54688H313.352V1.5H314.797ZM319.516 4.57031C320.156 3.78385 320.99 3.39062 322.016 3.39062C323.802 3.39062 324.703 4.39844 324.719 6.41406V12H323.273V6.40625C323.268 5.79688 323.128 5.34635 322.852 5.05469C322.581 4.76302 322.156 4.61719 321.578 4.61719C321.109 4.61719 320.698 4.74219 320.344 4.99219C319.99 5.24219 319.714 5.57031 319.516 5.97656V12H318.07V0H319.516V4.57031Z" fill="#545454"/>
</svg>
